<svg width="100" height="100" viewBox="0 0 100 100" fill="none" xmlns="http://www.w3.org/2000/svg">
<g clip-path="url(#clip0_4886_196)">
<path d="M37.1669 67V32.0909H51.1442C53.7124 32.0909 55.8544 32.4716 57.5703 33.233C59.2862 33.9943 60.576 35.0511 61.4396 36.4034C62.3033 37.7443 62.7351 39.2898 62.7351 41.0398C62.7351 42.4034 62.4624 43.6023 61.9169 44.6364C61.3715 45.6591 60.6215 46.5 59.6669 47.1591C58.7237 47.8068 57.6442 48.267 56.4283 48.5398V48.8807C57.7578 48.9375 59.0021 49.3125 60.1612 50.0057C61.3317 50.6989 62.2805 51.6705 63.0078 52.9205C63.7351 54.1591 64.0987 55.6364 64.0987 57.3523C64.0987 59.2045 63.6385 60.858 62.718 62.3125C61.8089 63.7557 60.4624 64.8977 58.6783 65.7386C56.8942 66.5795 54.6953 67 52.0817 67H37.1669ZM44.5476 60.9659H50.5646C52.6214 60.9659 54.1214 60.5739 55.0646 59.7898C56.0078 58.9943 56.4794 57.9375 56.4794 56.6193C56.4794 55.6534 56.2464 54.8011 55.7805 54.0625C55.3146 53.3239 54.6499 52.7443 53.7862 52.3239C52.9339 51.9034 51.9169 51.6932 50.7351 51.6932H44.5476V60.9659ZM44.5476 46.6989H50.0192C51.0305 46.6989 51.9283 46.5227 52.7124 46.1705C53.5078 45.8068 54.1328 45.2955 54.5874 44.6364C55.0533 43.9773 55.2862 43.1875 55.2862 42.267C55.2862 41.0057 54.8374 39.9886 53.9396 39.2159C53.0533 38.4432 51.7919 38.0568 50.1555 38.0568H44.5476V46.6989Z" fill="#9898A4"/>
</g>
<defs>
<clipPath id="clip0_4886_196">
<rect width="100" height="100" fill="white"/>
</clipPath>
</defs>
</svg>
