<svg width="100" height="100" viewBox="0 0 100 100" fill="none" xmlns="http://www.w3.org/2000/svg">
<g clip-path="url(#clip0_4886_206)">
<path d="M27.446 68L33.2415 33.0909H47.2188C49.7869 33.0909 51.8665 33.4716 53.4574 34.233C55.0597 34.9943 56.179 36.0511 56.8153 37.4034C57.4517 38.7443 57.6222 40.2898 57.3267 42.0398C57.0881 43.4034 56.6051 44.5966 55.8778 45.6193C55.1619 46.642 54.2756 47.483 53.2188 48.142C52.1619 48.8011 51.0142 49.267 49.7756 49.5398L49.7074 49.8807C51.0256 49.9375 52.2131 50.3125 53.2699 51.0057C54.3267 51.6875 55.1165 52.6534 55.6392 53.9034C56.1619 55.1534 56.2813 56.6364 55.9972 58.3523C55.6903 60.2045 54.9574 61.858 53.7983 63.3125C52.6392 64.7557 51.0938 65.8977 49.1619 66.7386C47.2415 67.5795 44.9744 68 42.3608 68H27.446ZM35.8494 61.9659H41.8665C43.9119 61.9659 45.4744 61.5682 46.554 60.7727C47.6335 59.9773 48.2813 58.9261 48.4972 57.6193C48.6449 56.6534 48.5483 55.8011 48.2074 55.0625C47.8778 54.3239 47.3153 53.7443 46.5199 53.3239C45.7358 52.9034 44.7415 52.6932 43.5369 52.6932H37.3665L35.8494 61.9659ZM38.2188 47.6989H43.6903C44.6903 47.6989 45.6165 47.5227 46.4688 47.1705C47.3324 46.8068 48.0426 46.2955 48.5994 45.6364C49.1676 44.9659 49.5256 44.1761 49.6733 43.267C49.8778 41.9943 49.5938 40.9773 48.821 40.2159C48.0597 39.4432 46.8665 39.0568 45.2415 39.0568H39.6506L38.2188 47.6989ZM59.044 68L63.4077 41.8182H70.669L66.3054 68H59.044ZM67.7884 38.4091C66.7088 38.4091 65.8168 38.0511 65.1122 37.3352C64.419 36.608 64.1349 35.7443 64.2599 34.7443C64.3849 33.7216 64.8736 32.858 65.7259 32.1534C66.5781 31.4375 67.544 31.0795 68.6236 31.0795C69.7031 31.0795 70.5838 31.4375 71.2656 32.1534C71.9474 32.858 72.2315 33.7216 72.1179 34.7443C72.0043 35.7443 71.5213 36.608 70.669 37.3352C69.8281 38.0511 68.8679 38.4091 67.7884 38.4091Z" fill="#9898A4"/>
</g>
<defs>
<clipPath id="clip0_4886_206">
<rect width="100" height="100" fill="white"/>
</clipPath>
</defs>
</svg>
