<svg width="100" height="100" viewBox="0 0 100 100" fill="none" xmlns="http://www.w3.org/2000/svg">
<path d="M50 84C43.2755 84 36.7019 82.0059 31.1106 78.27C25.5194 74.534 21.1615 69.2239 18.5881 63.0113C16.0147 56.7986 15.3414 49.9623 16.6533 43.3669C17.9652 36.7716 21.2034 30.7134 25.9584 25.9584C30.7134 21.2034 36.7716 17.9652 43.3669 16.6533C49.9623 15.3414 56.7986 16.0147 63.0113 18.5881C69.2239 21.1615 74.534 25.5194 78.27 31.1106C82.0059 36.7019 84 43.2755 84 50C83.9903 59.0144 80.405 67.6568 74.0309 74.0309C67.6568 80.405 59.0144 83.9903 50 84ZM50 21.6667C44.3962 21.6667 38.9183 23.3284 34.2589 26.4417C29.5995 29.555 25.9679 33.9801 23.8234 39.1573C21.6789 44.3346 21.1179 50.0314 22.2111 55.5276C23.3043 61.0237 26.0028 66.0722 29.9653 70.0347C33.9278 73.9972 38.9763 76.6957 44.4725 77.7889C49.9686 78.8822 55.6655 78.3211 60.8427 76.1766C66.02 74.0321 70.445 70.4006 73.5583 65.7412C76.6716 61.0818 78.3333 55.6038 78.3333 50C78.3251 42.4881 75.3373 35.2862 70.0256 29.9744C64.7139 24.6627 57.512 21.6749 50 21.6667ZM66.0537 60.6137C66.615 60.114 66.9548 59.4117 66.9984 58.6615C67.042 57.9112 66.7857 57.1743 66.286 56.613C65.7863 56.0517 65.0841 55.7119 64.3338 55.6683C63.5835 55.6247 62.8467 55.881 62.2853 56.3807C58.8217 59.297 54.5179 61.032 50 61.3333C45.4849 61.0322 41.1833 59.2993 37.7203 56.3863C37.1598 55.8859 36.4233 55.6286 35.6731 55.6711C34.9228 55.7136 34.2201 56.0524 33.7197 56.613C33.2192 57.1736 32.9619 57.91 33.0044 58.6603C33.047 59.4106 33.3858 60.1132 33.9463 60.6137C38.4453 64.4572 44.0903 66.7028 50 67C55.9097 66.7028 61.5547 64.4572 66.0537 60.6137ZM33 44.3333C33 47.1667 35.5358 47.1667 38.6667 47.1667C41.7975 47.1667 44.3333 47.1667 44.3333 44.3333C44.3333 42.8305 43.7363 41.3891 42.6736 40.3264C41.6109 39.2637 40.1696 38.6667 38.6667 38.6667C37.1638 38.6667 35.7224 39.2637 34.6597 40.3264C33.597 41.3891 33 42.8305 33 44.3333ZM55.6667 44.3333C55.6667 47.1667 58.2025 47.1667 61.3333 47.1667C64.4642 47.1667 67 47.1667 67 44.3333C67 42.8305 66.403 41.3891 65.3403 40.3264C64.2776 39.2637 62.8362 38.6667 61.3333 38.6667C59.8305 38.6667 58.3891 39.2637 57.3264 40.3264C56.2637 41.3891 55.6667 42.8305 55.6667 44.3333Z" fill="#9898A4"/>
</svg>
