<svg width="100" height="100" viewBox="0 0 100 100" fill="none" xmlns="http://www.w3.org/2000/svg">
<g clip-path="url(#clip0_4896_265)">
<path d="M21.0107 67V32.0909H28.3913V46.4943H43.3743V32.0909H50.7379V67H43.3743V52.5795H28.3913V67H21.0107ZM56.6186 67V61.6818L69.0447 50.1761C70.1016 49.1534 70.9879 48.233 71.7038 47.4148C72.4311 46.5966 72.9822 45.7955 73.3572 45.0114C73.7322 44.2159 73.9197 43.358 73.9197 42.4375C73.9197 41.4148 73.6868 40.5341 73.2209 39.7955C72.755 39.0455 72.1186 38.4716 71.3118 38.0739C70.505 37.6648 69.5902 37.4602 68.5675 37.4602C67.4993 37.4602 66.5675 37.6761 65.772 38.108C64.9766 38.5398 64.3629 39.1591 63.9311 39.9659C63.4993 40.7727 63.2834 41.733 63.2834 42.8466H56.2777C56.2777 40.5625 56.7947 38.5795 57.8288 36.8977C58.8629 35.2159 60.3118 33.9148 62.1754 32.9943C64.0391 32.0739 66.1868 31.6136 68.6186 31.6136C71.1186 31.6136 73.2947 32.0568 75.147 32.9432C77.0107 33.8182 78.4595 35.0341 79.4936 36.5909C80.5277 38.1477 81.0447 39.9318 81.0447 41.9432C81.0447 43.2614 80.7834 44.5625 80.2607 45.8466C79.7493 47.1307 78.8345 48.5568 77.5163 50.125C76.1982 51.6818 74.3402 53.5511 71.9425 55.733L66.8459 60.7273V60.9659H81.505V67H56.6186Z" fill="#9898A4"/>
</g>
<defs>
<clipPath id="clip0_4896_265">
<rect width="100" height="100" fill="white"/>
</clipPath>
</defs>
</svg>
