<svg width="100" height="100" viewBox="0 0 100 100" fill="none" xmlns="http://www.w3.org/2000/svg">
<g clip-path="url(#clip0_4896_267)">
<path d="M20.3075 67V32.0909H27.6882V46.4943H42.6712V32.0909H50.0348V67H42.6712V52.5795H27.6882V67H20.3075ZM68.8189 67.4773C66.2734 67.4773 64.0064 67.0398 62.0178 66.1648C60.0405 65.2784 58.478 64.0625 57.3303 62.517C56.1939 60.9602 55.6087 59.1648 55.5746 57.1307H63.0064C63.0518 57.983 63.3303 58.733 63.8416 59.3807C64.3643 60.017 65.0575 60.5114 65.9212 60.8636C66.7848 61.2159 67.7564 61.392 68.8359 61.392C69.9609 61.392 70.9553 61.1932 71.8189 60.7955C72.6825 60.3977 73.3587 59.8466 73.8473 59.142C74.3359 58.4375 74.5803 57.625 74.5803 56.7045C74.5803 55.7727 74.3189 54.9489 73.7962 54.233C73.2848 53.5057 72.5462 52.9375 71.5803 52.5284C70.6257 52.1193 69.4893 51.9148 68.1712 51.9148H64.9155V46.4943H68.1712C69.2848 46.4943 70.2678 46.3011 71.12 45.9148C71.9837 45.5284 72.6541 44.9943 73.1314 44.3125C73.6087 43.6193 73.8473 42.8125 73.8473 41.892C73.8473 41.017 73.6371 40.25 73.2166 39.5909C72.8075 38.9205 72.228 38.3977 71.478 38.0227C70.7393 37.6477 69.8757 37.4602 68.8871 37.4602C67.8871 37.4602 66.9723 37.642 66.1428 38.0057C65.3132 38.358 64.6484 38.8636 64.1484 39.5227C63.6484 40.1818 63.3814 40.9545 63.3473 41.8409H56.2734C56.3075 39.8295 56.8814 38.0568 57.995 36.5227C59.1087 34.9886 60.6087 33.7898 62.495 32.9261C64.3928 32.0511 66.5348 31.6136 68.9212 31.6136C71.3303 31.6136 73.4382 32.0511 75.245 32.9261C77.0518 33.8011 78.4553 34.983 79.4553 36.4716C80.4666 37.9489 80.9666 39.608 80.9553 41.4489C80.9666 43.4034 80.3587 45.0341 79.1314 46.3409C77.9155 47.6477 76.3303 48.4773 74.3757 48.8295V49.1023C76.9439 49.4318 78.8984 50.3239 80.2393 51.7784C81.5916 53.2216 82.2621 55.0284 82.2507 57.1989C82.2621 59.1875 81.6882 60.9545 80.5291 62.5C79.3814 64.0455 77.7962 65.2614 75.7734 66.1477C73.7507 67.0341 71.4325 67.4773 68.8189 67.4773Z" fill="#9898A4"/>
</g>
<defs>
<clipPath id="clip0_4896_267">
<rect width="100" height="100" fill="white"/>
</clipPath>
</defs>
</svg>
