<svg width="100" height="100" viewBox="0 0 100 100" fill="none" xmlns="http://www.w3.org/2000/svg">
<g clip-path="url(#clip0_4886_199)">
<path d="M45.8047 67L50.1683 40.8182H54.1911L49.8274 67H45.8047ZM53.407 36.3864C52.6229 36.3864 51.9467 36.1193 51.3786 35.5852C50.8217 35.0511 50.5433 34.4091 50.5433 33.6591C50.5433 32.9091 50.8217 32.267 51.3786 31.733C51.9467 31.1989 52.6229 30.9318 53.407 30.9318C54.1911 30.9318 54.8615 31.1989 55.4183 31.733C55.9865 32.267 56.2706 32.9091 56.2706 33.6591C56.2706 34.4091 55.9865 35.0511 55.4183 35.5852C54.8615 36.1193 54.1911 36.3864 53.407 36.3864Z" fill="#9898A4"/>
</g>
<defs>
<clipPath id="clip0_4886_199">
<rect width="100" height="100" fill="white"/>
</clipPath>
</defs>
</svg>
