<svg width="100" height="100" viewBox="0 0 100 100" fill="none" xmlns="http://www.w3.org/2000/svg">
<path d="M38.1878 61.8051C36.6097 60.2269 35.4253 58.3852 34.5583 56.4189L39.0067 51.9706C39.5025 54.1268 40.5593 56.1639 42.1942 57.7988C44.4693 60.0739 47.4925 61.3262 50.7083 61.3262C53.9242 61.3262 56.9502 60.0739 59.2225 57.7988L74.8058 42.2154C77.081 39.9403 78.3333 36.9171 78.3333 33.7013C78.3333 30.4854 77.081 27.4594 74.8058 25.1871C70.1167 20.4979 62.4922 20.4922 57.7945 25.1672L54.9272 28.0346C53.1025 27.5841 51.2183 27.3262 49.2888 27.3262C48.6995 27.3262 48.1187 27.3688 47.5378 27.4113L53.7683 21.1807C60.6732 14.2731 71.9073 14.2731 78.8122 21.1807C85.717 28.0856 85.717 39.3198 78.8122 46.2246L63.2288 61.8079C59.8855 65.1541 55.4372 66.9957 50.7083 66.9957C45.9795 66.9957 41.5312 65.1512 38.1878 61.8051ZM16 66.2846C16 71.0134 17.8417 75.4617 21.1878 78.8051C24.5312 82.1512 28.9767 83.9929 33.7083 83.9929C38.44 83.9929 42.8855 82.1512 46.2288 78.8051L52.4622 72.5717C51.8813 72.6142 51.2977 72.6567 50.7112 72.6567C48.7817 72.6567 46.8975 72.3989 45.0728 71.9484L42.2225 74.7987C39.9473 77.0739 36.9242 78.3262 33.7083 78.3262C30.4925 78.3262 27.4693 77.0739 25.1942 74.7987C22.919 72.5236 21.6667 69.5004 21.6667 66.2846C21.6667 63.0687 22.919 60.0427 25.1942 57.7704L40.7775 42.1871C43.0527 39.9119 46.0758 38.6596 49.2917 38.6596C52.5075 38.6596 55.5165 39.9062 57.7888 42.1672L57.8058 42.1871C59.4407 43.8219 60.4975 45.8591 60.9933 48.0153L65.4417 43.5669C64.5747 41.6006 63.3903 39.7589 61.8122 38.1807C58.4688 34.8346 54.0205 32.9929 49.2917 32.9929C44.5628 32.9929 40.1145 34.8346 36.7712 38.1807L21.1878 53.7641C17.8417 57.1074 16 61.5557 16 66.2846Z" fill="#9898A4"/>
</svg>
