<svg width="100" height="100" viewBox="0 0 100 100" fill="none" xmlns="http://www.w3.org/2000/svg">
<g clip-path="url(#clip0_4896_292)">
<path d="M39.4084 50.1591V53.9091H24.1357V50.1591H39.4084ZM50.5092 32.0909V67H46.4865V32.0909H50.5092ZM76.4226 46.6818L72.8089 47.7045C72.5817 47.1023 72.2464 46.517 71.8033 45.9489C71.3714 45.3693 70.7805 44.892 70.0305 44.517C69.2805 44.142 68.3203 43.9545 67.1499 43.9545C65.5476 43.9545 64.2124 44.3239 63.1442 45.0625C62.0874 45.7898 61.5589 46.7159 61.5589 47.8409C61.5589 48.8409 61.9226 49.6307 62.6499 50.2102C63.3771 50.7898 64.5135 51.2727 66.0589 51.6591L69.9453 52.6136C72.2862 53.1818 74.0305 54.0511 75.1783 55.2216C76.326 56.3807 76.8999 57.875 76.8999 59.7045C76.8999 61.2045 76.468 62.5455 75.6044 63.7273C74.7521 64.9091 73.5589 65.8409 72.0249 66.5227C70.4908 67.2045 68.7067 67.5455 66.6726 67.5455C64.0021 67.5455 61.7919 66.9659 60.0419 65.8068C58.2919 64.6477 57.1839 62.9545 56.718 60.7273L60.5362 59.7727C60.8999 61.1818 61.5874 62.2386 62.5987 62.9432C63.6214 63.6477 64.9567 64 66.6044 64C68.4794 64 69.968 63.6023 71.0703 62.8068C72.1839 62 72.7408 61.0341 72.7408 59.9091C72.7408 59 72.4226 58.2386 71.7862 57.625C71.1499 57 70.1726 56.5341 68.8544 56.2273L64.4908 55.2045C62.093 54.6364 60.3317 53.7557 59.2067 52.5625C58.093 51.358 57.5362 49.8523 57.5362 48.0455C57.5362 46.5682 57.951 45.2614 58.7805 44.125C59.6214 42.9886 60.7635 42.0966 62.2067 41.4489C63.6612 40.8011 65.3089 40.4773 67.1499 40.4773C69.7408 40.4773 71.7749 41.0455 73.2521 42.1818C74.7408 43.3182 75.7976 44.8182 76.4226 46.6818Z" fill="#6B6B7A"/>
</g>
<defs>
<clipPath id="clip0_4896_292">
<rect width="100" height="100" fill="white"/>
</clipPath>
</defs>
</svg>
