<svg width="100" height="100" viewBox="0 0 100 100" fill="none" xmlns="http://www.w3.org/2000/svg">
<g clip-path="url(#clip0_4896_289)">
<path d="M25.652 63V36.8182H26.7429V40.7045H26.8793C27.3565 39.4318 28.2088 38.4091 29.4361 37.6364C30.6747 36.8636 32.1634 36.4773 33.902 36.4773C35.8793 36.4773 37.4531 36.9659 38.6236 37.9432C39.8054 38.9205 40.6179 40.2273 41.0611 41.8636H41.1974C41.6293 40.2273 42.5043 38.9205 43.8224 37.9432C45.1406 36.9659 46.7884 36.4773 48.7656 36.4773C51.3906 36.4773 53.3281 37.3125 54.5781 38.983C55.8395 40.642 56.4702 42.7841 56.4702 45.4091V63H55.3793V45.4091C55.3793 43.0909 54.8565 41.2045 53.8111 39.75C52.7656 38.2955 51.0838 37.5682 48.7656 37.5682C46.4474 37.5682 44.6747 38.3068 43.4474 39.7841C42.2202 41.25 41.6065 43.125 41.6065 45.4091V63H40.5156V45.4091C40.5156 43.0909 39.9929 41.2045 38.9474 39.75C37.902 38.2955 36.2202 37.5682 33.902 37.5682C32.3565 37.5682 31.0497 37.9034 29.9815 38.5739C28.9247 39.2443 28.1179 40.1705 27.5611 41.3523C27.0156 42.5341 26.7429 43.8864 26.7429 45.4091V63H25.652ZM83.2528 72.8182V56.4545H83.1165C82.6619 57.9091 82.0028 59.1705 81.1392 60.2386C80.2756 61.2955 79.2585 62.1136 78.0881 62.6932C76.9176 63.2614 75.6392 63.5455 74.2528 63.5455C72.2074 63.5455 70.429 62.9489 68.9176 61.7557C67.4063 60.5625 66.2358 58.9432 65.4062 56.8977C64.5767 54.8523 64.1619 52.5455 64.1619 49.9773C64.1619 47.3977 64.571 45.0852 65.3892 43.0398C66.2188 40.9943 67.3892 39.3807 68.9006 38.1989C70.4119 37.0057 72.196 36.4091 74.2528 36.4091C75.6619 36.4091 76.946 36.6989 78.1051 37.2784C79.2642 37.858 80.2699 38.6761 81.1222 39.733C81.9858 40.7898 82.6506 42.0455 83.1165 43.5H83.2528V36.8182H84.3438V72.8182H83.2528ZM74.2528 62.4545C76.0938 62.4545 77.6847 61.9091 79.0256 60.8182C80.3778 59.7159 81.4176 58.2273 82.1449 56.3523C82.8835 54.4659 83.2528 52.3409 83.2528 49.9773C83.2528 47.6136 82.8892 45.4943 82.1619 43.6193C81.4347 41.733 80.3949 40.2443 79.0426 39.1534C77.7017 38.0511 76.1051 37.5 74.2528 37.5C72.4006 37.5 70.7983 38.0511 69.446 39.1534C68.1051 40.2443 67.071 41.733 66.3438 43.6193C65.6165 45.4943 65.2528 47.6136 65.2528 49.9773C65.2528 52.3409 65.6165 54.4659 66.3438 56.3523C67.0824 58.2273 68.1222 59.7159 69.4631 60.8182C70.8153 61.9091 72.4119 62.4545 74.2528 62.4545Z" fill="#6B6B7A"/>
<rect x="14" y="30" width="5" height="43" fill="#BD58F2"/>
</g>
<defs>
<clipPath id="clip0_4896_289">
<rect width="100" height="100" fill="white"/>
</clipPath>
</defs>
</svg>
