<svg width="100" height="100" viewBox="0 0 100 100" fill="none" xmlns="http://www.w3.org/2000/svg">
<g clip-path="url(#clip0_4896_286)">
<path d="M65.2138 72.8182V56.4545H65.0774C64.6229 57.9091 63.9638 59.1705 63.1001 60.2386C62.2365 61.2955 61.2195 62.1136 60.049 62.6932C58.8786 63.2614 57.6001 63.5455 56.2138 63.5455C54.1683 63.5455 52.3899 62.9489 50.8786 61.7557C49.3672 60.5625 48.1967 58.9432 47.3672 56.8977C46.5376 54.8523 46.1229 52.5455 46.1229 49.9773C46.1229 47.3977 46.532 45.0852 47.3501 43.0398C48.1797 40.9943 49.3501 39.3807 50.8615 38.1989C52.3729 37.0057 54.157 36.4091 56.2138 36.4091C57.6229 36.4091 58.907 36.6989 60.0661 37.2784C61.2251 37.858 62.2308 38.6761 63.0831 39.733C63.9467 40.7898 64.6115 42.0455 65.0774 43.5H65.2138V36.8182H66.3047V72.8182H65.2138ZM56.2138 62.4545C58.0547 62.4545 59.6456 61.9091 60.9865 60.8182C62.3388 59.7159 63.3786 58.2273 64.1058 56.3523C64.8445 54.4659 65.2138 52.3409 65.2138 49.9773C65.2138 47.6136 64.8501 45.4943 64.1229 43.6193C63.3956 41.733 62.3558 40.2443 61.0036 39.1534C59.6626 38.0511 58.0661 37.5 56.2138 37.5C54.3615 37.5 52.7592 38.0511 51.407 39.1534C50.0661 40.2443 49.032 41.733 48.3047 43.6193C47.5774 45.4943 47.2138 47.6136 47.2138 49.9773C47.2138 52.3409 47.5774 54.4659 48.3047 56.3523C49.0433 58.2273 50.0831 59.7159 51.424 60.8182C52.7763 61.9091 54.3729 62.4545 56.2138 62.4545Z" fill="#6B6B7A"/>
<rect x="34" y="30" width="5" height="43" fill="#BD58F2"/>
</g>
<defs>
<clipPath id="clip0_4896_286">
<rect width="100" height="100" fill="white"/>
</clipPath>
</defs>
</svg>
