<svg width="100" height="100" viewBox="0 0 100 100" fill="none" xmlns="http://www.w3.org/2000/svg">
<path d="M81.9354 42.687C79.3776 38.4985 76.1512 34.7572 72.3842 31.6115L80.3175 23.6781C80.8337 23.1438 81.1192 22.4281 81.1128 21.6852C81.1063 20.9423 80.8084 20.2317 80.283 19.7063C79.7577 19.181 79.0471 18.883 78.3042 18.8766C77.5613 18.8701 76.8456 19.1557 76.3112 19.6718L67.6837 28.3106C62.3355 25.134 56.2212 23.4783 50.0009 23.5223C32.4597 23.5223 22.4637 35.53 18.0664 42.687C16.7079 44.8842 15.9883 47.4165 15.9883 49.9998C15.9883 52.5831 16.7079 55.1154 18.0664 57.3126C20.6242 61.5011 23.8506 65.2424 27.6175 68.3881L19.6842 76.3215C19.4136 76.5829 19.1977 76.8955 19.0493 77.2412C18.9008 77.5868 18.8226 77.9586 18.8193 78.3348C18.8161 78.7111 18.8878 79.0841 19.0302 79.4324C19.1727 79.7806 19.3831 80.0969 19.6491 80.3629C19.9151 80.629 20.2315 80.8393 20.5797 80.9818C20.9279 81.1243 21.301 81.196 21.6772 81.1927C22.0534 81.1894 22.4252 81.1113 22.7709 80.9628C23.1165 80.8143 23.4292 80.5984 23.6905 80.3278L32.3379 71.6805C37.6795 74.8566 43.7864 76.5151 50.0009 76.4773C67.542 76.4773 77.538 64.4696 81.9354 57.3126C83.2939 55.1154 84.0135 52.5831 84.0135 49.9998C84.0135 47.4165 83.2939 44.8842 81.9354 42.687ZM22.8944 54.3461C22.0873 53.0401 21.6598 51.5351 21.6598 49.9998C21.6598 48.4645 22.0873 46.9595 22.8944 45.6535C26.674 39.5165 35.2165 29.189 50.0009 29.189C54.705 29.1626 59.343 30.2964 63.5045 32.4898L57.801 38.1933C55.0809 36.3874 51.8196 35.5781 48.5707 35.903C45.3218 36.2278 42.2853 37.6667 39.9765 39.9755C37.6678 42.2843 36.2289 45.3207 35.904 48.5696C35.5792 51.8185 36.3884 55.0798 38.1944 57.8L31.6494 64.345C28.1788 61.5392 25.2173 58.1568 22.8944 54.3461ZM58.5009 49.9998C58.5009 52.2542 57.6053 54.4162 56.0113 56.0102C54.4172 57.6043 52.2552 58.4998 50.0009 58.4998C48.7387 58.4949 47.4939 58.2043 46.36 57.6498L57.6509 46.359C58.2054 47.4929 58.496 48.7376 58.5009 49.9998ZM41.5009 49.9998C41.5009 47.7455 42.3964 45.5835 43.9905 43.9894C45.5845 42.3953 47.7465 41.4998 50.0009 41.4998C51.2631 41.5047 52.5078 41.7953 53.6417 42.3498L42.3509 53.6406C41.7964 52.5068 41.5058 51.262 41.5009 49.9998ZM77.1074 54.3461C73.3277 60.4831 64.7852 70.8106 50.0009 70.8106C45.2968 70.837 40.6587 69.7033 36.4972 67.5098L42.2007 61.8063C44.9209 63.6123 48.1821 64.4215 51.4311 64.0966C54.68 63.7718 57.7164 62.3329 60.0252 60.0241C62.334 57.7154 63.7729 54.6789 64.0977 51.43C64.4226 48.1811 63.6133 44.9198 61.8074 42.1996L68.3524 35.6546C71.8229 38.4604 74.7845 41.8428 77.1074 45.6535C77.9145 46.9595 78.342 48.4645 78.342 49.9998C78.342 51.5351 77.9145 53.0401 77.1074 54.3461Z" fill="#9898A4"/>
</svg>
