<svg width="100" height="100" viewBox="0 0 100 100" fill="none" xmlns="http://www.w3.org/2000/svg">
<g clip-path="url(#clip0_4886_218)">
<path d="M60.6847 38.0909C60.4119 35.7879 59.3059 34 57.3665 32.7273C55.4271 31.4545 53.0483 30.8182 50.2301 30.8182C48.1695 30.8182 46.3665 31.1515 44.821 31.8182C43.2907 32.4848 42.0938 33.4015 41.2301 34.5682C40.3816 35.7348 39.9574 37.0606 39.9574 38.5455C39.9574 39.7879 40.2528 40.8561 40.8438 41.75C41.4498 42.6288 42.2225 43.3636 43.1619 43.9545C44.1013 44.5303 45.0862 45.0076 46.1165 45.3864C47.1468 45.75 48.0938 46.0455 48.9574 46.2727L53.6847 47.5455C54.8968 47.8636 56.2453 48.303 57.7301 48.8636C59.2301 49.4242 60.6619 50.1894 62.0256 51.1591C63.4044 52.1136 64.5407 53.3409 65.4347 54.8409C66.3286 56.3409 66.7756 58.1818 66.7756 60.3636C66.7756 62.8788 66.1165 65.1515 64.7983 67.1818C63.4953 69.2121 61.5862 70.8258 59.071 72.0227C56.571 73.2197 53.5331 73.8182 49.9574 73.8182C46.6241 73.8182 43.7377 73.2803 41.2983 72.2045C38.8741 71.1288 36.965 69.6288 35.571 67.7045C34.1922 65.7803 33.4119 63.5455 33.2301 61H39.0483C39.1998 62.7576 39.7907 64.2121 40.821 65.3636C41.8665 66.5 43.1847 67.3485 44.7756 67.9091C46.3816 68.4545 48.1089 68.7273 49.9574 68.7273C52.1089 68.7273 54.0407 68.3788 55.7528 67.6818C57.465 66.9697 58.821 65.9848 59.821 64.7273C60.821 63.4545 61.321 61.9697 61.321 60.2727C61.321 58.7273 60.8892 57.4697 60.0256 56.5C59.1619 55.5303 58.0256 54.7424 56.6165 54.1364C55.2074 53.5303 53.6847 53 52.0483 52.5455L46.321 50.9091C42.6847 49.8636 39.8059 48.3712 37.6847 46.4318C35.5634 44.4924 34.5028 41.9545 34.5028 38.8182C34.5028 36.2121 35.2074 33.9394 36.6165 32C38.0407 30.0455 39.9498 28.5303 42.3438 27.4545C44.7528 26.3636 47.4422 25.8182 50.4119 25.8182C53.4119 25.8182 56.0786 26.3561 58.4119 27.4318C60.7453 28.4924 62.5938 29.947 63.9574 31.7955C65.3362 33.6439 66.0634 35.7424 66.1392 38.0909H60.6847Z" fill="#6B6B7A"/>
<path d="M29.5938 52.0455H70.4119V56.4091H29.5938V52.0455Z" fill="#6B6B7A"/>
</g>
<defs>
<clipPath id="clip0_4886_218">
<rect width="100" height="100" fill="white"/>
</clipPath>
</defs>
</svg>
