<svg width="100" height="100" viewBox="0 0 100 100" fill="none" xmlns="http://www.w3.org/2000/svg">
<g clip-path="url(#clip0_4896_284)">
<path d="M30.4979 46.3409L29.407 46.6136C29.0547 45.4773 28.5604 44.5341 27.924 43.7841C27.299 43.0227 26.532 42.4545 25.6229 42.0795C24.7138 41.6932 23.657 41.5 22.4524 41.5C20.3615 41.5 18.6683 42.0341 17.3729 43.1023C16.0774 44.1591 15.4297 45.5568 15.4297 47.2955C15.4297 48.6705 15.8672 49.8239 16.7422 50.7557C17.6286 51.6875 18.9638 52.375 20.7479 52.8182L24.8388 53.8409C26.7592 54.3182 28.2138 55.125 29.2024 56.2614C30.2024 57.3977 30.7024 58.7727 30.7024 60.3864C30.7024 61.8068 30.3274 63.0568 29.5774 64.1364C28.8388 65.2159 27.8161 66.0568 26.5092 66.6591C25.2024 67.25 23.6911 67.5455 21.9751 67.5455C19.6456 67.5455 17.7422 66.9773 16.2649 65.8409C14.7876 64.7045 13.8274 63.0909 13.3842 61L14.4751 60.7273C14.8615 62.5795 15.6854 64 16.9467 64.9886C18.2195 65.9659 19.8956 66.4545 21.9751 66.4545C24.2479 66.4545 26.0888 65.8977 27.4979 64.7841C28.907 63.6705 29.6115 62.2045 29.6115 60.3864C29.6115 59.0341 29.1911 57.892 28.3501 56.9602C27.5092 56.0284 26.2479 55.3523 24.5661 54.9318L20.4751 53.9091C18.4638 53.4091 16.9354 52.5909 15.8899 51.4545C14.8558 50.3182 14.3388 48.9318 14.3388 47.2955C14.3388 45.9205 14.6797 44.7216 15.3615 43.6989C16.0547 42.6648 17.0092 41.858 18.2251 41.2784C19.4524 40.6989 20.8615 40.4091 22.4524 40.4091C24.4751 40.4091 26.1626 40.9091 27.5149 41.9091C28.8672 42.8977 29.8615 44.375 30.4979 46.3409ZM55.397 58.4091V40.8182H56.4879V67H55.397V62.8409H55.2607C54.647 64.2045 53.6357 65.2955 52.2266 66.1136C50.8288 66.9318 49.2266 67.3409 47.4197 67.3409C45.6697 67.3409 44.1243 66.9602 42.7834 66.1989C41.4425 65.4375 40.3913 64.3864 39.63 63.0455C38.8686 61.7045 38.4879 60.1591 38.4879 58.4091V40.8182H39.5788V58.4091C39.5788 60.7273 40.3061 62.6136 41.7607 64.0682C43.2152 65.5227 45.1016 66.25 47.4197 66.25C48.9652 66.25 50.3345 65.9148 51.5277 65.2443C52.7322 64.5739 53.6754 63.6477 54.3572 62.4659C55.0504 61.2841 55.397 59.9318 55.397 58.4091ZM66.5874 67V32.0909H67.6783V47.5H67.8146C68.2692 46.0455 68.9283 44.7898 69.7919 43.733C70.6555 42.6648 71.6726 41.8466 72.843 41.2784C74.0135 40.6989 75.2919 40.4091 76.6783 40.4091C78.7237 40.4091 80.5021 41.0057 82.0135 42.1989C83.5249 43.392 84.6953 45.0114 85.5249 47.0568C86.3544 49.1023 86.7692 51.4091 86.7692 53.9773C86.7692 56.5568 86.3544 58.8693 85.5249 60.9148C84.7067 62.9602 83.5419 64.5795 82.0305 65.7727C80.5305 66.9545 78.7464 67.5455 76.6783 67.5455C75.2805 67.5455 73.9964 67.2557 72.826 66.6761C71.6669 66.0966 70.6612 65.2784 69.8089 64.2216C68.9567 63.1534 68.2919 61.8977 67.8146 60.4545H67.6783V67H66.5874ZM67.6783 53.9773C67.6783 56.3409 68.0419 58.4659 68.7692 60.3523C69.4964 62.2273 70.5305 63.7159 71.8714 64.8182C73.2237 65.9091 74.826 66.4545 76.6783 66.4545C78.5305 66.4545 80.1271 65.9091 81.468 64.8182C82.8203 63.7159 83.8601 62.2273 84.5874 60.3523C85.3146 58.4659 85.6783 56.3409 85.6783 53.9773C85.6783 51.6136 85.3089 49.4943 84.5703 47.6193C83.843 45.733 82.8033 44.2443 81.451 43.1534C80.1101 42.0511 78.5192 41.5 76.6783 41.5C74.8374 41.5 73.2408 42.0511 71.8885 43.1534C70.5476 44.2443 69.5078 45.733 68.7692 47.6193C68.0419 49.4943 67.6783 51.6136 67.6783 53.9773Z" fill="#6B6B7A"/>
</g>
<defs>
<clipPath id="clip0_4896_284">
<rect width="100" height="100" fill="white"/>
</clipPath>
</defs>
</svg>
