<svg width="100" height="100" viewBox="0 0 100 100" fill="none" xmlns="http://www.w3.org/2000/svg">
<g clip-path="url(#clip0_4886_211)">
<path d="M41.831 28.0909H49.2116V50.7614C49.2116 53.3068 48.6037 55.5341 47.3878 57.4432C46.1832 59.3523 44.4957 60.8409 42.3253 61.9091C40.1548 62.9659 37.6264 63.4943 34.7401 63.4943C31.8423 63.4943 29.3082 62.9659 27.1378 61.9091C24.9673 60.8409 23.2798 59.3523 22.0753 57.4432C20.8707 55.5341 20.2685 53.3068 20.2685 50.7614V28.0909H27.6491V50.1307C27.6491 51.4602 27.9389 52.642 28.5185 53.6761C29.1094 54.7102 29.9389 55.5227 31.0071 56.1136C32.0753 56.7045 33.3196 57 34.7401 57C36.1719 57 37.4162 56.7045 38.473 56.1136C39.5412 55.5227 40.3651 54.7102 40.9446 53.6761C41.5355 52.642 41.831 51.4602 41.831 50.1307V28.0909ZM55.2841 63V28.0909H62.5455V41.2159H62.767C63.0852 40.5114 63.5455 39.7955 64.1477 39.0682C64.7614 38.3295 65.5568 37.7159 66.5341 37.2273C67.5227 36.7273 68.75 36.4773 70.2159 36.4773C72.125 36.4773 73.8864 36.9773 75.5 37.9773C77.1136 38.9659 78.4034 40.4602 79.3693 42.4602C80.3352 44.4489 80.8182 46.9432 80.8182 49.9432C80.8182 52.8636 80.3466 55.3295 79.4034 57.3409C78.4716 59.3409 77.1989 60.858 75.5852 61.892C73.983 62.9148 72.1875 63.4261 70.1989 63.4261C68.7898 63.4261 67.5909 63.1932 66.6023 62.7273C65.625 62.2614 64.8239 61.6761 64.1989 60.9716C63.5739 60.2557 63.0966 59.5341 62.767 58.8068H62.4432V63H55.2841ZM62.392 49.9091C62.392 51.4659 62.608 52.8239 63.0398 53.983C63.4716 55.142 64.0966 56.0455 64.9148 56.6932C65.733 57.3295 66.7273 57.6477 67.8977 57.6477C69.0795 57.6477 70.0795 57.3239 70.8977 56.6761C71.7159 56.017 72.3352 55.108 72.7557 53.9489C73.1875 52.7784 73.4034 51.4318 73.4034 49.9091C73.4034 48.3977 73.1932 47.0682 72.7727 45.9205C72.3523 44.7727 71.733 43.875 70.9148 43.2273C70.0966 42.5795 69.0909 42.2557 67.8977 42.2557C66.7159 42.2557 65.7159 42.5682 64.8977 43.1932C64.0909 43.8182 63.4716 44.7045 63.0398 45.8523C62.608 47 62.392 48.3523 62.392 49.9091Z" fill="#9898A4"/>
<path d="M17.2344 72.5455H82.7443V75.8182H17.2344V72.5455Z" fill="#9898A4"/>
</g>
<defs>
<clipPath id="clip0_4886_211">
<rect width="100" height="100" fill="white"/>
</clipPath>
</defs>
</svg>
