<svg width="100" height="100" viewBox="0 0 100 100" fill="none" xmlns="http://www.w3.org/2000/svg">
<g clip-path="url(#clip0_4886_201)">
<path d="M59.3473 27.0909H63.5746V50.2045C63.5746 52.5909 63.0121 54.7216 61.8871 56.5966C60.7734 58.4602 59.1996 59.9318 57.1655 61.0114C55.1314 62.0795 52.745 62.6136 50.0064 62.6136C47.2678 62.6136 44.8814 62.0795 42.8473 61.0114C40.8132 59.9318 39.2337 58.4602 38.1087 56.5966C36.995 54.7216 36.4382 52.5909 36.4382 50.2045V27.0909H40.6655V49.8636C40.6655 51.5682 41.0405 53.0852 41.7905 54.4148C42.5405 55.733 43.6087 56.7727 44.995 57.5341C46.3928 58.2841 48.0632 58.6591 50.0064 58.6591C51.9496 58.6591 53.62 58.2841 55.0178 57.5341C56.4155 56.7727 57.4837 55.733 58.2223 54.4148C58.9723 53.0852 59.3473 51.5682 59.3473 49.8636V27.0909Z" fill="#9898A4"/>
<path d="M32.2109 71.5455H67.8018V74.8182H32.2109V71.5455Z" fill="#9898A4"/>
</g>
<defs>
<clipPath id="clip0_4886_201">
<rect width="100" height="100" fill="white"/>
</clipPath>
</defs>
</svg>
