<svg width="100" height="100" viewBox="0 0 100 100" fill="none" xmlns="http://www.w3.org/2000/svg">
<g clip-path="url(#clip0_4896_273)">
<path d="M56.2656 33.0909H60.4929L56.6747 56.2045C56.277 58.5909 55.3622 60.7216 53.9304 62.5966C52.4986 64.4602 50.6747 65.9318 48.4588 67.0114C46.2429 68.0795 43.7656 68.6136 41.027 68.6136C38.2884 68.6136 35.9929 68.0795 34.1406 67.0114C32.2884 65.9318 30.9588 64.4602 30.152 62.5966C29.3452 60.7216 29.1406 58.5909 29.5384 56.2045L33.3565 33.0909H37.5838L33.7997 55.8636C33.527 57.5682 33.6577 59.0852 34.1918 60.4148C34.7259 61.733 35.6236 62.7727 36.8849 63.5341C38.1577 64.2841 39.7656 64.6591 41.7088 64.6591C43.652 64.6591 45.3849 64.2841 46.9077 63.5341C48.4304 62.7727 49.669 61.733 50.6236 60.4148C51.5895 59.0852 52.2088 57.5682 52.4815 55.8636L56.2656 33.0909ZM62.5938 68L66.9574 41.8182H70.9801L66.6165 68H62.5938ZM70.196 37.3864C69.4119 37.3864 68.7358 37.1193 68.1676 36.5852C67.6108 36.0511 67.3324 35.4091 67.3324 34.6591C67.3324 33.9091 67.6108 33.267 68.1676 32.733C68.7358 32.1989 69.4119 31.9318 70.196 31.9318C70.9801 31.9318 71.6506 32.1989 72.2074 32.733C72.7756 33.267 73.0597 33.9091 73.0597 34.6591C73.0597 35.4091 72.7756 36.0511 72.2074 36.5852C71.6506 37.1193 70.9801 37.3864 70.196 37.3864Z" fill="#9898A4"/>
<path d="M25.5156 77.5455H72.4801V80.8182H25.5156V77.5455Z" fill="#9898A4"/>
</g>
<defs>
<clipPath id="clip0_4896_273">
<rect width="100" height="100" fill="white"/>
</clipPath>
</defs>
</svg>
