<svg width="100" height="100" viewBox="0 0 100 100" fill="none" xmlns="http://www.w3.org/2000/svg">
<g clip-path="url(#clip0_4896_282)">
<path d="M12.5163 68L18.3118 33.0909H32.2891C34.8572 33.0909 36.9368 33.4716 38.5277 34.233C40.13 34.9943 41.2493 36.0511 41.8857 37.4034C42.522 38.7443 42.6925 40.2898 42.397 42.0398C42.1584 43.4034 41.6754 44.5966 40.9482 45.6193C40.2322 46.642 39.3459 47.483 38.2891 48.142C37.2322 48.8011 36.0845 49.267 34.8459 49.5398L34.7777 49.8807C36.0959 49.9375 37.2834 50.3125 38.3402 51.0057C39.397 51.6875 40.1868 52.6534 40.7095 53.9034C41.2322 55.1534 41.3516 56.6364 41.0675 58.3523C40.7607 60.2045 40.0277 61.858 38.8686 63.3125C37.7095 64.7557 36.1641 65.8977 34.2322 66.7386C32.3118 67.5795 30.0447 68 27.4311 68H12.5163ZM20.9197 61.9659H26.9368C28.9822 61.9659 30.5447 61.5682 31.6243 60.7727C32.7038 59.9773 33.3516 58.9261 33.5675 57.6193C33.7152 56.6534 33.6186 55.8011 33.2777 55.0625C32.9482 54.3239 32.3857 53.7443 31.5902 53.3239C30.8061 52.9034 29.8118 52.6932 28.6072 52.6932H22.4368L20.9197 61.9659ZM23.2891 47.6989H28.7607C29.7607 47.6989 30.6868 47.5227 31.5391 47.1705C32.4027 46.8068 33.1129 46.2955 33.6697 45.6364C34.2379 44.9659 34.5959 44.1761 34.7436 43.267C34.9482 41.9943 34.6641 40.9773 33.8913 40.2159C33.13 39.4432 31.9368 39.0568 30.3118 39.0568H24.7209L23.2891 47.6989ZM44.1143 68L48.478 41.8182H55.7393L51.3757 68H44.1143ZM52.8587 38.4091C51.7791 38.4091 50.8871 38.0511 50.1825 37.3352C49.4893 36.608 49.2053 35.7443 49.3303 34.7443C49.4553 33.7216 49.9439 32.858 50.7962 32.1534C51.6484 31.4375 52.6143 31.0795 53.6939 31.0795C54.7734 31.0795 55.6541 31.4375 56.3359 32.1534C57.0178 32.858 57.3018 33.7216 57.1882 34.7443C57.0746 35.7443 56.5916 36.608 55.7393 37.3352C54.8984 38.0511 53.9382 38.4091 52.8587 38.4091ZM75.8402 56.8523L78.3459 41.8182H85.6072L81.2436 68H74.272L75.0561 63.2443H74.7834C73.9766 64.7784 72.8004 66.0114 71.255 66.9432C69.7095 67.875 67.9538 68.3409 65.9879 68.3409C64.2379 68.3409 62.7607 67.9432 61.5561 67.1477C60.3629 66.3523 59.5163 65.2216 59.0163 63.7557C58.5163 62.2898 58.4311 60.5341 58.7607 58.4886L61.5561 41.8182H68.8175L66.2607 57.1932C66.022 58.7386 66.2379 59.9602 66.9084 60.858C67.5788 61.7557 68.6016 62.2045 69.9766 62.2045C70.8516 62.2045 71.6982 62.0057 72.5163 61.608C73.3459 61.1989 74.0618 60.5966 74.6641 59.8011C75.2663 59.0057 75.6584 58.0227 75.8402 56.8523Z" fill="#9898A4"/>
<path d="M11.6641 77.5455H86.3232V80.8182H11.6641V77.5455Z" fill="#9898A4"/>
</g>
<defs>
<clipPath id="clip0_4896_282">
<rect width="100" height="100" fill="white"/>
</clipPath>
</defs>
</svg>
