<svg width="100" height="100" viewBox="0 0 100 100" fill="none" xmlns="http://www.w3.org/2000/svg">
<g clip-path="url(#clip0_4889_240)">
<path d="M47.9125 32.056C50.1738 32.056 52.2005 32.4827 53.9925 33.336C55.8272 34.1893 57.3845 35.4907 58.6645 37.24H58.9845L59.7525 32.696H64.2325V67.576C64.2325 70.8187 63.6778 73.528 62.5685 75.704C61.4592 77.9227 59.7738 79.5867 57.5125 80.696C55.2512 81.8053 52.3712 82.36 48.8725 82.36C46.3978 82.36 44.1152 82.168 42.0245 81.784C39.9765 81.4427 38.1418 80.9093 36.5205 80.184V75C37.6298 75.5547 38.8458 76.024 40.1685 76.408C41.4912 76.8347 42.9205 77.1547 44.4565 77.368C45.9925 77.5813 47.5712 77.688 49.1925 77.688C52.1365 77.688 54.4405 76.8133 56.1045 75.064C57.8112 73.3573 58.6645 71.0107 58.6645 68.024V66.68C58.6645 66.168 58.6858 65.4427 58.7285 64.504C58.7712 63.5227 58.8138 62.84 58.8565 62.456H58.6005C57.4058 64.2053 55.9125 65.5067 54.1205 66.36C52.3712 67.2133 50.3232 67.64 47.9765 67.64C43.5392 67.64 40.0618 66.0827 37.5445 62.968C35.0698 59.8533 33.8325 55.5013 33.8325 49.912C33.8325 46.2427 34.3872 43.0853 35.4965 40.44C36.6485 37.752 38.2698 35.6827 40.3605 34.232C42.4512 32.7813 44.9685 32.056 47.9125 32.056ZM48.6805 36.792C46.7605 36.792 45.1178 37.304 43.7525 38.328C42.4298 39.352 41.4058 40.8453 40.6805 42.808C39.9978 44.7707 39.6565 47.16 39.6565 49.976C39.6565 54.2 40.4245 57.4427 41.9605 59.704C43.5392 61.9227 45.8218 63.032 48.8085 63.032C50.5578 63.032 52.0512 62.8187 53.2885 62.392C54.5258 61.9227 55.5498 61.2187 56.3605 60.28C57.1712 59.2987 57.7685 58.0613 58.1525 56.568C58.5365 55.0747 58.7285 53.304 58.7285 51.256V49.912C58.7285 46.7973 58.3658 44.28 57.6405 42.36C56.9578 40.44 55.8698 39.032 54.3765 38.136C52.8832 37.24 50.9845 36.792 48.6805 36.792ZM46.3765 28.216C45.8218 27.2347 45.0752 26.1893 44.1365 25.08C43.1978 23.928 42.2165 22.7973 41.1925 21.688C40.1685 20.5787 39.2725 19.6187 38.5045 18.808V17.976H42.3445C43.4538 18.7013 44.6058 19.576 45.8005 20.6C46.9952 21.624 48.1258 22.712 49.1925 23.864C50.3445 22.712 51.5178 21.624 52.7125 20.6C53.9072 19.576 55.0592 18.7013 56.1685 17.976H60.1365V18.808C59.3258 19.6187 58.3872 20.5787 57.3205 21.688C56.2965 22.7973 55.2938 23.928 54.3125 25.08C53.3738 26.1893 52.6485 27.2347 52.1365 28.216H46.3765ZM45.142 54.3636L40.9602 54.1818C40.9602 51.8636 41.6269 49.9697 42.9602 48.5C44.2784 47.0152 45.9148 46.2727 47.8693 46.2727C48.733 46.2727 49.4981 46.4242 50.1648 46.7273C50.8314 47.0152 51.4678 47.3485 52.0739 47.7273C52.6799 48.1061 53.3087 48.447 53.9602 48.75C54.5966 49.0379 55.3239 49.1818 56.142 49.1818C57.0057 49.1818 57.7405 48.8485 58.3466 48.1818C58.9375 47.5 59.233 46.6818 59.233 45.7273L63.3239 46.0909C63.3239 48.4545 62.6648 50.3333 61.3466 51.7273C60.0133 53.1212 58.3693 53.8182 56.4148 53.8182C55.3693 53.8182 54.5057 53.6742 53.8239 53.3864C53.142 53.0833 52.536 52.7424 52.0057 52.3636C51.4754 51.9848 50.9148 51.6515 50.3239 51.3636C49.733 51.0606 49.0057 50.9091 48.142 50.9091C47.2784 50.9091 46.5663 51.25 46.0057 51.9318C45.4299 52.5985 45.142 53.4091 45.142 54.3636ZM60.6635 23.416C60.6635 22.3067 60.9622 21.5173 61.5595 21.048C62.1568 20.536 62.8608 20.28 63.6715 20.28C64.4822 20.28 65.1862 20.536 65.7835 21.048C66.3808 21.5173 66.6795 22.3067 66.6795 23.416C66.6795 24.4827 66.3808 25.2933 65.7835 25.848C65.1862 26.36 64.4822 26.616 63.6715 26.616C62.8608 26.616 62.1568 26.36 61.5595 25.848C60.9622 25.2933 60.6635 24.4827 60.6635 23.416ZM72.6955 23.416C72.6955 22.3067 72.9728 21.5173 73.5275 21.048C74.1248 20.536 74.8288 20.28 75.6395 20.28C76.4502 20.28 77.1542 20.536 77.7515 21.048C78.3488 21.5173 78.6475 22.3067 78.6475 23.416C78.6475 24.4827 78.3488 25.2933 77.7515 25.848C77.1542 26.36 76.4502 26.616 75.6395 26.616C74.8288 26.616 74.1248 26.36 73.5275 25.848C72.9728 25.2933 72.6955 24.4827 72.6955 23.416ZM50.4148 80.6364C48.5511 80.6364 47.0133 80.1212 45.8011 79.0909C44.5739 78.0758 43.9602 76.5909 43.9602 74.6364C43.9602 73.5152 44.233 72.3939 44.7784 71.2727C45.3239 70.1515 46.2027 69.0682 47.4148 68.0227C48.6269 66.9773 50.233 66 52.233 65.0909L54.6875 67C53.3239 68 52.1042 69.0606 51.0284 70.1818C49.9527 71.303 49.4148 72.5455 49.4148 73.9091C49.4148 74.5909 49.5814 75.1212 49.9148 75.5C50.2481 75.8939 50.8693 76.0909 51.7784 76.0909C52.4602 76.0909 53.0663 76 53.5966 75.8182C54.1269 75.6364 54.5511 75.4545 54.8693 75.2727L55.233 79.2727C54.733 79.5909 54.0814 79.8939 53.2784 80.1818C52.4602 80.4848 51.5057 80.6364 50.4148 80.6364ZM62.9675 77.112V73.272H67.5755V68.792H71.7995V73.272H76.4075V77.112H71.7995V81.592H67.5755V77.112H62.9675Z" fill="#9898A4"/>
</g>
<defs>
<clipPath id="clip0_4889_240">
<rect width="100" height="100" fill="white"/>
</clipPath>
</defs>
</svg>
